<svg version="1.1" id="Layer_1" xmlns="http://www.w3.org/2000/svg" xmlns:xlink="http://www.w3.org/1999/xlink" x="0px" y="0px" viewBox="0 0 400 400" style="enable-background:new 0 0 400 400;" xml:space="preserve">
<g>
    <path d="M244.6,47.4c10.2,0,20.4,0,30.6,0c12.4,3.4,24,5.3,34.7,13c20.7,15,30.3,35.5,30.3,60.8c-0.2,58.4-0.5,116.9-0.6,175.3
        c0,6.3,0.9,12.7,2.1,18.9c1.4,6.8,9.6,8.3,15.3,6.2c7.6-2.8,7.8-14.6,7.9-21.3c0.4-15.8-0.6-31.7,0.5-47.5c6.9,0,13.3,0,19.6,0c0,16.6,0,33.2,0,49.8c0.2,3.1-5.5,28.6-12.8,36.5c-7.6,8.2-17.3,12.7-28,13.3c-11,0.6-20.6-1-22-1.3c-13.5-3-23.6-10.4-29.7-22.8c-1.9-4-3.3-8.2-5-12.3c-22.2,30.6-27.2,30-48,36.4c-6,0-11.9,0-17.9,0c-0.5-0.3-1-0.8-1.6-1c-25.6-5.6-45.8-17.3-51.3-46.7c-1.4,3.4-2.3,5.8-3.3,8.1c-8.1,19.4-21.3,32.9-42.4,37.6c-2.9,0.6-5.7,1.3-8.6,2c-6.4,0-12.8,0-19.1,0c-1.6-0.4-3.2-1-4.9-1.2c-22.3-3.4-40.2-13.8-52.5-33.2c-17.1-26.9-19.1-58.7-23-89.5c0-17.9,0-35.7,0-53.6c3.6-31.1,5.2-63.2,22.3-90.5c6.3-10,14.6-18.7,24.8-24.9c13.1-7.9,27.3-9.9,42.2-12.1c1.7,0,3.4,0,5.1,0c8.3,1.7,16.6,2.1,24.6,5.3c7.6,3,14.5,7.4,20.5,12.8c11.6,10.3,18.7,24,21.7,39.2c0.7-2.6,0.9-3.8,1.3-4.9c4.4-13.4,11.8-25.9,22.8-35C213.2,54,228.4,50.7,244.6,47.4C254.8,47.4,238.6,48.6,244.6,47.4z M158.3,121.1c3.6-29.9-23.7-52.5-52.6-44.3C93,80.4,81.1,89.3,76.8,102.1c-6.2,18.2-6.8,38.4-7.9,57.4c-1.1,20-1.3,40-1,60c0.3,19.1,0.1,38.8,2.7,57.8c1.9,13.9,7.4,31,19.2,39.7c8.4,6.2,19.9,8.4,30,5.4c15.6-4.6,21.6-20.5,24.8-35c4.8-21.3,4.4-43.3,4.4-65c9.5,0,18.2,0,27.2,0c0.3,5,0.5,9.6,0.8,14.3c17.7-27.8,49.5-40.9,76.1-58.2c23.7-15.5,41-41.4,33.1-70.7c-7.7-28.4-40.6-39.4-66.3-28.4c-13.8,5.9-28.4,21.4-24.1,37.7c5.3-8.3,11.1-14.6,21.4-15.8c9.8-1.1,18.6,3.4,23.9,11.8c11.3,17.9,0,44.6-20.4,49.1c-10.5,2.3-21.3-1.3-29.3-8.2c-9.4-8-13-18.6-15.6-30.3c-4.4,10.5-7.4,22.9-15.2,31.6c-6.3,7-15.3,10-24.5,9.1c-21.7-2.1-32.7-27.7-24.7-46.9c7.6-18.2,35.7-20.5,43.8-1.3
        C155.6,117.5,156.6,118.6,158.3,121.1C158.6,118.3,156.6,118.6,158.3,121.1z M262.7,204.8c-8.9,8.6-17.7,17.3-26.2,26.4
        c-11.5,12.3-19.4,27.7-21.1,44.6c-1.3,13.8-0.1,33.6,12.7,42.1c6.5,4.3,15.5,5.7,23,4c8.6-1.9,14.5-8,19.6-14.8
        c11.5-15.4,14.2-36.2,15.5-54.8c1.7-23.2,0.5-46.5,0.5-69.7"></path>
</g>
</svg>
