<?xml version="1.0" encoding="UTF-8" standalone="no"?>
<svg
   xmlns:svg="http://www.w3.org/2000/svg"
   xmlns="http://www.w3.org/2000/svg"
   version="1.1"
   x="0px"
   y="0px"
   viewBox="0 0 100 29.6"
   id="svg2"
   width="100"
   height="29.6"><g
     id="g4"
     transform="translate(0,-34.9)"><path
       d="m 85.2,39.6 c 0.4,0 0.7,0.1 1,0.3 0.7,0.4 1.1,1.1 1.1,1.9 l 0,0 0,6.2 6,0 c 1.2,0 2.2,1 2.2,2.2 0,1.2 -1,2.2 -2.2,2.2 l -6,0 0,5.9 c 0,1.2 -1,2.2 -2.2,2.2 -0.3,0 -16.6,0 -16.6,0 -1.2,0 -2.2,-1 -2.2,-2.2 l 0,-8.3 0,0 c 0.1,-1.2 1,-2.1 2.2,-2.1 l 14.5,0 0,-4 -16.6,0 -7.7,14.8 c -0.3,0.6 -0.7,1.2 -1.4,1.5 -0.3,0.1 -0.6,0.2 -0.9,0.2 -0.8,0 -1.5,-0.4 -1.9,-1.1 C 54.4,59.2 54.4,59 54.3,58.9 L 48,46.6 l -6.3,12 c -0.3,0.6 -0.7,1.2 -1.3,1.5 -0.3,0.1 -0.6,0.2 -0.9,0.2 -0.8,0 -1.5,-0.4 -1.9,-1.1 -0.1,-0.1 -0.1,-0.3 -0.2,-0.4 l -7.6,-15 -12.9,0 0,4 10.3,0 c 1.2,0 2.2,1 2.2,2.2 0,1.2 -1,2.2 -2.2,2.2 l -10.3,0 0,6 c 0,1.2 -1,2.2 -2.2,2.2 -1.2,0 -2.2,-1 -2.2,-2.2 l 0,-6 -6,0 c -1.2,0 -2.2,-1 -2.2,-2.2 0,-1.2 1,-2.2 2.2,-2.2 l 6,0 0,-6.2 0,0 c 0,-0.8 0.5,-1.5 1.1,-1.9 0.3,-0.2 0.7,-0.3 1,-0.3 l 16.2,0 c 0.4,0 0.7,0.1 1,0.2 0.5,0.2 0.8,0.6 1.1,1 l 6.4,12.6 6.4,-12 c 0.3,-0.7 0.5,-1.2 1.2,-1.6 0.3,-0.1 0.6,-0.2 0.9,-0.2 0.5,0 1.1,0.2 1.5,0.6 0.4,0.3 0.6,0.5 0.9,1 l 6.1,12.2 6.8,-12.6 c 0.2,-0.3 0.4,-0.6 0.7,-0.7 0.4,-0.3 0.9,-0.5 1.4,-0.5 l 20,0 m -14.5,16.5 12.4,0 0,-3.7 -12.4,0 0,3.7 m 14.5,-20.8 -20,0 c -1.5,0 -2.9,0.5 -4,1.4 -0.8,0.6 -1.4,1.3 -1.9,2.1 l 0,0 0,0 -2.8,5.1 c 0,0 -3.2,-6.3 -4.2,-7.1 -1.2,-1 -2.7,-1.6 -4.3,-1.6 -1,0 -2,0.2 -2.9,0.7 -1.7,0.8 -2.7,2.3 -3.5,4.1 l -2.1,3.9 -2.5,-5 C 36.3,37.3 35.2,36.3 33.9,35.6 33,35.2 32,34.9 31,34.9 l -16.2,0 c -1.1,0 -2.2,0.3 -3.2,0.8 -2.1,1.2 -3.5,3.4 -3.5,5.8 l 0,1.7 -1.5,0 c -3.6,0 -6.6,3 -6.6,6.6 0,3.6 3,6.6 6.6,6.6 l 1.5,0 0,1.5 c 0,3.6 3,6.6 6.6,6.6 3.6,0 6.6,-3 6.6,-6.6 l 0,-1.5 5.9,0 c 1.3,0 2.5,-0.4 3.5,-1 l 2.6,5.1 c 0.1,0.3 0.3,0.6 0.5,0.8 1.2,2 3.3,3.2 5.7,3.2 1,0 2,-0.2 2.9,-0.7 1.6,-0.8 3,-2.1 3.7,-3.8 l 1.9,-4.2 2.3,4.6 c 0.1,0.3 0.3,0.6 0.4,0.8 1.2,2 3.3,3.2 5.7,3.2 1,0 2,-0.2 2.9,-0.7 1.5,-0.7 2.7,-2 3.3,-3.6 1,2.4 3.4,4.1 6.1,4.1 l 16.6,0 c 3.6,0 6.6,-2.8 6.6,-6.5 l 0,-1.5 1.5,0 c 3.6,0 6.6,-3 6.6,-6.6 C 100,46 97,43 93.4,43 l -1.5,0 0,-1.7 c 0,-2.4 -1.3,-4.7 -3.5,-5.8 -1,-0.1 -2.1,-0.4 -3.2,-0.4 l 0,0 z"
       id="path6"
       /></g></svg>
